<svg width="200" height="200" viewBox="0 0 200 200" fill="none" xmlns="http://www.w3.org/2000/svg">
<rect width="200" height="200" fill="white"/>
<path d="M100 20C59.02 20 25 54.02 25 95C25 135.98 59.02 170 100 170C140.98 170 175 135.98 175 95C175 54.02 140.98 20 100 20Z" fill="#1E3A8A"/>
<path d="M100 40C69.62 40 45 64.62 45 95C45 125.38 69.62 150 100 150C130.38 150 155 125.38 155 95C155 64.62 130.38 40 100 40Z" fill="white"/>
<path d="M100 60C79.06 60 62.5 76.56 62.5 97.5C62.5 118.44 79.06 135 100 135C120.94 135 137.5 118.44 137.5 97.5C137.5 76.56 120.94 60 100 60Z" fill="#1E3A8A"/>
<path d="M115 90L85 90L85 120L115 120L115 90Z" fill="white"/>
<path d="M130 95L130 115L125 115L125 95L130 95Z" fill="white"/>
<path d="M70 95L70 115L75 115L75 95L70 95Z" fill="white"/>
</svg>